<svg width="150" height="34" viewBox="0 0 150 34" fill="none" xmlns="http://www.w3.org/2000/svg">
<path fill-rule="evenodd" clip-rule="evenodd" d="M30.6956 0H3.1754C2.33323 0 1.52556 0.335825 0.930054 0.933597C0.33455 1.53137 0 2.34212 0 3.1875L0 30.8125C0 31.6579 0.33455 32.4686 0.930054 33.0664C1.52556 33.6642 2.33323 34 3.1754 34H30.6956C31.5377 34 32.3454 33.6642 32.9409 33.0664C33.5364 32.4686 33.871 31.6579 33.871 30.8125V3.1875C33.871 2.34212 33.5364 1.53137 32.9409 0.933597C32.3454 0.335825 31.5377 0 30.6956 0" fill="#868686"/>
<path fill-rule="evenodd" clip-rule="evenodd" d="M17.9938 14.6018V12.1428H13.3063V29.1428H18.1451V21.0982C18.1451 18.9465 18.9471 16.8482 21.3507 16.8482C23.5487 16.8482 24.1934 18.1718 24.1934 20.4911V29.1428H29.0322V18.1839C29.0322 14.2678 26.966 11.9911 23.0007 11.9911C20.4713 11.9911 18.6882 13.3875 17.9926 14.6018H17.9938ZM4.8386 29.1428V12.1428H9.67731V29.1428H4.8386ZM7.25796 4.45035C7.62881 4.45027 7.99605 4.52351 8.3387 4.6659C8.68135 4.80828 8.99271 5.01702 9.255 5.2802C9.51729 5.54337 9.72537 5.85583 9.86736 6.19973C10.0094 6.54362 10.0825 6.91223 10.0826 7.28449C10.0826 7.65676 10.0097 8.02539 9.86782 8.36935C9.72598 8.71331 9.51803 9.02585 9.25585 9.28914C8.99368 9.55243 8.68241 9.7613 8.33982 9.90383C7.99722 10.0464 7.63002 10.1198 7.25917 10.1198C6.5102 10.12 5.79184 9.8215 5.26213 9.29C4.73241 8.75849 4.43473 8.03753 4.43457 7.28571C4.43441 6.53388 4.73178 5.81279 5.26127 5.28106C5.79076 4.74932 6.50899 4.45051 7.25796 4.45035Z" fill="#FAFAFA"/>
<path fill-rule="evenodd" clip-rule="evenodd" d="M46.6089 10.744H48.3157V22.8201H54.2178V24.2857H46.6089V10.744ZM59.0226 10.744H66.796V12.189H60.7295V16.4414H65.85V17.9071H60.7295V22.8201H67.0016V24.2857H59.0226V10.744ZM78.017 18.7741L77.3795 16.7098C77.1349 15.9601 76.9018 15.2068 76.6803 14.45C76.4613 13.6996 76.2411 12.9321 76.0222 12.1477H75.9399C75.5413 13.6818 75.0955 15.2033 74.6032 16.7098L73.9657 18.7741H78.017ZM78.4488 20.1571H73.5339L72.2383 24.2857H70.4903L75.0557 10.744H76.9887L81.5541 24.2857H79.7238L78.4488 20.1571ZM87.5928 17.1639H89.8549C90.9109 17.1639 91.719 16.9478 92.2815 16.5143C92.844 16.0796 93.1246 15.4226 93.1246 14.5423C93.1246 13.6473 92.844 13.022 92.2815 12.6638C91.719 12.3056 90.9109 12.1271 89.8549 12.1271H87.5928V17.1639ZM93.2891 24.2857L90.0399 18.5676H87.5928V24.2857H85.8859V10.744H90.1016C90.7875 10.744 91.4202 10.8096 92.0045 10.9395C92.5434 11.0516 93.0538 11.2731 93.5045 11.5903C93.923 11.8939 94.2484 12.2849 94.4819 12.767C94.7153 13.2491 94.8315 13.8404 94.8315 14.5423C94.8315 15.6023 94.5569 16.4487 94.0089 17.0813C93.4609 17.714 92.7266 18.1475 91.8085 18.3818L95.2222 24.2857H93.2891ZM100.253 10.744H102.022L106.896 19.2488L108.356 22.0563H108.438C108.397 21.3678 108.353 20.6562 108.305 19.9191C108.256 19.1833 108.232 18.4571 108.232 17.7419V10.744H109.857V24.2857H108.088L103.194 15.7602L101.734 12.9734H101.652C101.706 13.6619 101.758 14.3601 101.805 15.0693C101.854 15.7772 101.878 16.49 101.878 17.2052V24.2857H100.253V10.744ZM115.978 10.744H117.685V24.2857H115.978V10.744ZM123.806 10.744H125.574L130.448 19.2488L131.908 22.0563H131.99C131.949 21.3678 131.906 20.6562 131.857 19.9191C131.809 19.1833 131.785 18.4571 131.785 17.7419V10.744H133.409V24.2857H131.641L126.746 15.7602L125.286 12.9734H125.204C125.258 13.6619 125.311 14.3601 125.358 15.0693C125.406 15.7772 125.43 16.49 125.43 17.2052V24.2857H123.806V10.744ZM138.749 17.5148C138.749 16.4281 138.902 15.4506 139.212 14.5836C139.521 13.7166 139.951 12.9807 140.506 12.3748C141.063 11.7688 141.716 11.305 142.471 10.9808C143.259 10.6509 144.106 10.486 144.959 10.4963C145.891 10.4963 146.67 10.6711 147.294 11.0233C147.917 11.3742 148.427 11.7555 148.825 12.1683L147.859 13.2624C147.514 12.9026 147.115 12.5994 146.676 12.3638C146.231 12.1234 145.666 12.0032 144.98 12.0032C144.294 12.0032 143.677 12.1307 143.129 12.3857C142.581 12.6407 142.114 13.005 141.731 13.4786C141.327 13.9915 141.023 14.5765 140.836 15.2028C140.614 15.9389 140.507 16.7048 140.517 17.4736C140.517 18.3272 140.617 19.0934 140.815 19.7746C141.015 20.4571 141.302 21.0375 141.68 21.5196C142.056 22.0016 142.522 22.3732 143.078 22.6343C143.633 22.8953 144.273 23.0265 145 23.0265C145.481 23.0265 145.936 22.9536 146.367 22.8103C146.8 22.6646 147.154 22.4691 147.427 22.2214V18.6915H144.569V17.2671H148.99V22.9646C148.551 23.4187 147.973 23.7939 147.252 24.0902C146.532 24.3853 145.72 24.5334 144.815 24.5334C143.976 24.5436 143.143 24.382 142.368 24.0586C141.637 23.749 140.984 23.2804 140.456 22.6865C139.921 22.0866 139.502 21.3508 139.201 20.4765C138.899 19.6022 138.749 18.6162 138.749 17.5148Z" fill="#A6A6A6"/>
</svg>
