<svg width="147" height="43" viewBox="0 0 147 43" fill="none" xmlns="http://www.w3.org/2000/svg">
<path fill-rule="evenodd" clip-rule="evenodd" d="M135.237 36.105H139.447L146.731 17.4797H142.564L139.553 26.756L136.381 17.4797H131.729L137.268 30.9332L135.237 36.105ZM114.339 21.9011V31.4483H110.092V17.4797H113.076L113.964 18.6999C115.119 17.7239 116.356 17.1539 117.781 17.1539C119.69 17.1539 121.141 17.7239 122.029 19.1348C123.319 17.9406 124.69 17.1539 126.438 17.1539C129.718 17.1539 131.627 18.8632 131.627 23.5013V31.4483H127.379V23.9897C127.379 21.8469 126.518 21.2227 125.147 21.2227C124.341 21.2227 123.669 21.4395 122.916 21.9278C122.97 22.4162 122.997 22.9313 122.997 23.5013V31.4483H118.749V23.9897C118.749 21.8469 117.888 21.2227 116.491 21.2227C115.711 21.2227 115.066 21.4127 114.339 21.9011ZM99.5249 23.0946H104.983C104.687 21.2776 103.719 20.4092 102.267 20.4092C101.03 20.4092 99.8478 21.1418 99.5249 23.0946ZM102.563 31.7199C98.4766 31.7199 95.1963 29.6855 95.1963 24.3148C95.1963 19.2967 98.3692 17.1271 102.025 17.1271C106.434 17.1271 108.397 20.246 108.397 25.1558H99.4977C99.7941 27.5695 101.273 28.2753 103.236 28.2753C105.134 28.2753 106.618 27.8027 107.767 27.0228L107.191 30.4222C106.094 31.2768 104.778 31.7199 102.563 31.7199ZM86.7465 28.1127C87.7139 28.1127 88.44 27.9495 89.1926 27.3802V21.3044C88.5209 20.8969 87.8492 20.7076 86.8811 20.7076C84.811 20.7076 83.628 22.1178 83.628 24.4774C83.628 26.7834 84.8382 28.1127 86.7465 28.1127ZM90.0261 30.4181C88.9241 31.259 87.6609 31.7741 85.8593 31.7741C82.0685 31.7741 79.3266 29.4146 79.3266 24.559C79.3266 19.7309 82.4723 17.1271 86.5045 17.1271C87.4454 17.1271 88.3598 17.263 89.1926 17.5881V11.6591H93.441V31.4483H90.7522L90.0261 30.4181ZM61.3284 23.1755V12.823H65.7372V23.0946C65.7372 26.7834 67.377 27.5427 69.6354 27.5427C72.0822 27.5427 73.3453 26.4576 73.3453 23.0946V12.823H77.7814V23.1755C77.7814 29.2788 75.1469 31.8283 69.4206 31.8283C64.0974 31.8283 61.3284 29.6313 61.3284 23.1755Z" fill="#A6A6A6"/>
<path fill-rule="evenodd" clip-rule="evenodd" d="M50.0922 23.952C49.9134 23.8072 49.7121 23.7098 49.4932 23.668C48.2001 24.9685 46.6222 26.3382 45.2211 27.2587C44.5745 27.6922 43.7614 27.909 43.223 27.909C41.9836 27.909 41.4452 26.7169 41.2834 24.8217C41.0679 22.2763 40.9224 19.2274 40.9224 14.5152C40.9224 9.68223 39.8353 6.39671 36.9392 6.13881C36.8168 6.12783 36.6931 6.12029 36.5639 6.12029C34.7861 6.12029 33.924 7.04078 32.7928 9.37014C31.8233 11.3737 30.3147 14.2984 27.5137 19.8228C25.0894 24.5892 22.3959 28.8137 20.0789 31.7384C19.4338 32.5492 18.9239 33.1061 18.4446 33.423C18.1244 33.6357 17.8171 33.742 17.4935 33.742C16.5791 33.742 15.9115 32.9635 15.6885 31.1506C15.6355 30.7198 15.6076 30.2308 15.6076 29.68C15.6076 25.9432 17.0087 19.8769 19.4324 10.9402C21.2102 4.44117 20.4563 0.000579834 16.577 0.000579834C16.5709 0.000579834 16.5648 0.000579834 16.5587 0.000579834C16.5505 0.000579834 16.5424 0.000579834 16.5335 0.000579834L16.5308 0.00126575C15.6525 0.0115544 14.9243 0.332561 14.2227 0.889522C13.532 1.43825 12.8406 2.62351 12.1954 4.21688C11.468 6.01191 7.0449 14.9631 0.00508443 19.5745C-0.077857 21.3277 0.905882 23.0802 2.89919 23.2702C4.71371 23.4437 6.00202 22.672 7.66085 21.5478C7.53643 22.1068 7.42154 22.6295 7.31684 23.1076C7.19311 23.6721 7.08773 24.1591 7.00343 24.5521C6.87698 25.1372 6.79676 25.5138 6.77296 25.618C6.5425 26.6846 6.37797 27.6977 6.27124 28.6594C5.27866 37.6112 9.39106 42.0285 14.2071 42.0285C15.012 42.0285 15.8095 41.9318 16.6015 41.7287C21.9077 40.3713 27.0161 34.2303 33.0627 20.0937C32.9709 21.6315 32.9614 23.0678 33.0273 24.4005C33.4257 32.5025 36.6019 34.9334 41.0896 34.9334C44.4834 34.9334 47.6617 33.1466 49.2777 30.9256C50.4634 29.3549 50.9481 27.6216 50.9481 26.2676C50.9481 25.2168 50.6177 24.3779 50.0922 23.952Z" fill="#868686"/>
</svg>
