<svg width="135" height="45" viewBox="0 0 135 45" fill="none" xmlns="http://www.w3.org/2000/svg">
<g clip-path="url(#clip0)">
<path d="M49.6147 30.8986V14.2558H60.6296V17.4017H53.2863V20.6679H59.8056V23.7418H53.2863V27.7527H61.171V30.8986H49.6147Z" fill="#A6A6A6"/>
<path d="M67.5441 27.8474C67.717 27.8636 67.9168 27.8753 68.1446 27.8834C68.372 27.8915 68.6427 27.8955 68.9564 27.8955C70.7923 27.8955 72.1534 27.423 73.0397 26.4785C73.9267 25.5339 74.37 24.2289 74.37 22.5639C74.37 20.8188 73.946 19.4981 73.0987 18.6016C72.2515 17.7048 70.9101 17.2566 69.0742 17.2566C68.8232 17.2566 68.5643 17.2606 68.2975 17.2688C68.0307 17.2764 67.7797 17.2966 67.5441 17.3286V27.8474ZM78.1589 22.5639C78.1589 24.0048 77.9394 25.2616 77.5 26.3345C77.0606 27.4073 76.4369 28.2956 75.629 29.0003C74.8212 29.7045 73.8361 30.2328 72.6751 30.5852C71.5138 30.9375 70.2115 31.1135 68.768 31.1135C68.1091 31.1135 67.3403 31.0856 66.4616 31.0293C65.5828 30.9735 64.7198 30.8574 63.8726 30.681V14.4706C64.7198 14.3109 65.6025 14.2024 66.5206 14.1466C67.4384 14.0904 68.2269 14.0625 68.8858 14.0625C70.2824 14.0625 71.5496 14.2227 72.6869 14.5426C73.8242 14.8631 74.8011 15.3675 75.6172 16.056C76.4329 16.7441 77.0606 17.6247 77.5 18.6975C77.9394 19.7703 78.1589 21.0591 78.1589 22.5639Z" fill="#A6A6A6"/>
<path d="M80.8655 15.118L84.3722 14.5416V18.264H88.5855V21.2421H84.3722V25.685C84.3722 26.4373 84.5019 27.0376 84.7608 27.4863C85.0197 27.9345 85.5414 28.1586 86.326 28.1586C86.7023 28.1586 87.0909 28.1226 87.4908 28.0506C87.8908 27.9786 88.2561 27.8782 88.5855 27.7505L89.0797 30.536C88.6561 30.7123 88.1855 30.8645 87.6674 30.9922C87.1496 31.1205 86.514 31.1844 85.7613 31.1844C84.8037 31.1844 84.0116 31.0525 83.3839 30.7884C82.7562 30.5242 82.2541 30.1557 81.8774 29.6837C81.5007 29.2112 81.2379 28.6387 81.0889 27.9665C80.94 27.2941 80.8655 26.5494 80.8655 25.7331V15.118Z" fill="#A6A6A6"/>
<path d="M90.3787 24.6772C90.3787 23.5563 90.5473 22.5757 90.8846 21.7352C91.222 20.8946 91.6653 20.1944 92.2142 19.6336C92.7639 19.0734 93.3952 18.6491 94.1092 18.3611C94.8229 18.0726 95.5567 17.9286 96.3097 17.9286C98.0669 17.9286 99.4559 18.4772 100.475 19.5738C101.496 20.6704 102.006 22.2837 102.006 24.4131C102.006 24.621 101.998 24.8492 101.982 25.0971C101.966 25.3455 101.951 25.5656 101.935 25.7577H93.9796C94.058 26.4944 94.3954 27.0784 94.9919 27.5109C95.5882 27.9434 96.3881 28.1594 97.3922 28.1594C98.0357 28.1594 98.6674 28.0991 99.2869 27.9794C99.9071 27.8592 100.413 27.7112 100.805 27.5348L101.276 30.4409C101.088 30.5367 100.837 30.633 100.523 30.7289C100.209 30.8252 99.8598 30.9089 99.4752 30.9813C99.091 31.0533 98.6792 31.1132 98.2398 31.1613C97.8001 31.2094 97.3611 31.2333 96.9217 31.2333C95.8077 31.2333 94.8387 31.065 94.0151 30.7289C93.1911 30.3927 92.5089 29.9324 91.9671 29.3483C91.4261 28.7637 91.0257 28.0711 90.7668 27.2706C90.5079 26.4701 90.3787 25.6056 90.3787 24.6772ZM98.6162 23.3084C98.6008 23.0042 98.5496 22.7076 98.4636 22.4196C98.377 22.1316 98.2434 21.8751 98.0629 21.651C97.8828 21.4269 97.6551 21.2429 97.3808 21.0989C97.1061 20.9549 96.7648 20.8824 96.3566 20.8824C95.9645 20.8824 95.6272 20.9508 95.3447 21.0867C95.0625 21.2231 94.8269 21.4031 94.6385 21.6272C94.4501 21.8512 94.3051 22.1114 94.2031 22.4074C94.1014 22.704 94.0269 23.0042 93.9796 23.3084H98.6162Z" fill="#A6A6A6"/>
<path d="M109.442 28.3997C109.787 28.3997 110.116 28.3916 110.43 28.3754C110.744 28.3596 110.995 28.3353 111.183 28.3034V25.5899C111.042 25.5574 110.83 25.5255 110.548 25.4936C110.265 25.4616 110.006 25.4454 109.771 25.4454C109.442 25.4454 109.132 25.4657 108.841 25.5057C108.551 25.5458 108.296 25.6218 108.076 25.7339C107.857 25.8459 107.684 25.998 107.559 26.1902C107.433 26.3823 107.37 26.6222 107.37 26.9106C107.37 27.4709 107.555 27.8592 107.923 28.0752C108.292 28.2912 108.798 28.3997 109.442 28.3997ZM109.159 17.9286C110.195 17.9286 111.058 18.0487 111.748 18.2891C112.438 18.5289 112.992 18.8732 113.407 19.3218C113.823 19.77 114.117 20.3141 114.29 20.9549C114.463 21.5952 114.549 22.3076 114.549 23.0919V30.5367C114.047 30.6488 113.349 30.7811 112.454 30.9332C111.56 31.0853 110.477 31.1613 109.206 31.1613C108.406 31.1613 107.68 31.0893 107.029 30.9453C106.378 30.8009 105.817 30.5651 105.346 30.2366C104.876 29.9085 104.515 29.4801 104.264 28.9518C104.012 28.4235 103.887 27.7751 103.887 27.0064C103.887 26.2702 104.032 25.6457 104.322 25.1336C104.613 24.621 105.001 24.2129 105.488 23.9087C105.974 23.6044 106.531 23.3844 107.159 23.2481C107.786 23.1122 108.437 23.0442 109.112 23.0442C109.567 23.0442 109.971 23.064 110.324 23.1041C110.677 23.1441 110.964 23.1963 111.183 23.2602V22.9241C111.183 22.3157 111.003 21.8274 110.642 21.4589C110.281 21.0907 109.654 20.9067 108.759 20.9067C108.163 20.9067 107.574 20.9508 106.994 21.0386C106.413 21.1267 105.911 21.2509 105.488 21.4112L105.04 18.5289C105.244 18.465 105.499 18.3971 105.805 18.3251C106.111 18.2531 106.445 18.1887 106.805 18.1329C107.167 18.0767 107.547 18.0289 107.947 17.9889C108.347 17.9489 108.751 17.9286 109.159 17.9286Z" fill="#A6A6A6"/>
<path d="M124.527 24.199C124.527 23.0465 124.382 22.2297 124.092 21.7496C123.802 21.269 123.303 21.0292 122.597 21.0292C122.377 21.0292 122.15 21.0408 121.914 21.0652C121.679 21.089 121.452 21.1169 121.232 21.1493V30.8995H117.725V18.6995C118.023 18.6194 118.373 18.5352 118.773 18.4475C119.173 18.3593 119.596 18.2792 120.044 18.2072C120.491 18.1352 120.949 18.0789 121.421 18.0389C121.891 17.9988 122.354 17.979 122.809 17.979C123.703 17.979 124.429 18.0952 124.986 18.3273C125.543 18.5595 126.002 18.8354 126.363 19.1558C126.865 18.7877 127.442 18.4992 128.093 18.2913C128.744 18.083 129.344 17.979 129.893 17.979C130.882 17.979 131.694 18.119 132.329 18.3993C132.965 18.6797 133.471 19.0757 133.847 19.5882C134.224 20.1003 134.483 20.7087 134.624 21.4135C134.765 22.1177 134.836 22.902 134.836 23.7669V30.8995H131.329V24.199C131.329 23.0465 131.184 22.2297 130.894 21.7496C130.603 21.269 130.105 21.0292 129.399 21.0292C129.21 21.0292 128.948 21.0768 128.61 21.1732C128.273 21.269 127.995 21.3892 127.775 21.5332C127.885 21.9017 127.955 22.2896 127.987 22.6982C128.018 23.1063 128.034 23.5424 128.034 24.0068V30.8995H124.527V24.199Z" fill="#A6A6A6"/>
<path fill-rule="evenodd" clip-rule="evenodd" d="M21.3547 36.333C16.6825 36.0415 12.2084 33.1255 10.0333 28.864C8.01474 24.9093 8.0465 19.9413 10.1096 16.0169C12.4192 11.624 17.0005 8.94512 22.0714 8.71474C22.0714 8.71474 23.3314 8.63239 24.1724 8.14504C26.6677 6.69827 27.0403 2.42778 24.3585 0.684026C23.6365 0.214675 22.7748 -0.00267516 21.9157 2.48393e-05C13.4441 0.0828249 5.25218 5.48462 1.8087 13.4987C-1.08527 20.2347 -0.483283 28.4036 3.44841 34.6501C6.57744 39.6209 11.6805 43.256 17.3414 44.5127C25.0884 46.2329 33.6693 43.3094 38.8478 37.1448C43.9821 31.032 45.5509 21.996 42.6754 14.4104C41.0268 10.0616 38.1058 6.09574 34.1976 3.70983C33.9935 3.58518 33.7795 3.48258 33.5591 3.40068C37.4906 6.83641 39.9833 11.9345 39.9833 17.6207C39.9833 27.9563 31.7491 36.347 21.6061 36.347C21.5232 36.347 21.5148 36.343 21.3547 36.333Z" fill="#868686"/>
</g>
<defs>
<clipPath id="clip0">
<rect width="135" height="45" fill="white"/>
</clipPath>
</defs>
</svg>
