<svg width="350" height="257" viewBox="0 0 350 257" fill="none" xmlns="http://www.w3.org/2000/svg">
<g clip-path="url(#clip0)">
<path d="M61.3525 9.53674e-07L43.0646 29.891C48.0038 33.0991 51.4958 38.1082 52.7975 43.8522C54.0991 49.5961 53.1076 55.6213 50.0338 60.6452C46.9601 65.6691 42.047 69.295 36.3402 70.7511C30.6334 72.2072 24.5837 71.3785 19.4787 68.4414L0.0339355 100.223L187.624 214.994L248.943 114.771L61.3525 9.53674e-07Z" fill="#1074E7" fill-opacity="0.5"/>
<path d="M33.4871 63.5742C39.9018 63.5742 45.3588 59.4736 47.3798 53.7507C48.2993 51.1469 45.9732 48.8738 43.2124 48.813C34.9303 48.6306 33.7013 47.4015 33.5189 39.1194C33.4581 36.3587 31.1849 34.0326 28.5811 34.9521C22.8582 36.973 18.7576 42.43 18.7576 48.8448C18.7576 56.9796 25.3522 63.5742 33.4871 63.5742Z" fill="#1074E7" fill-opacity="0.5"/>
<path d="M170.163 246.151C198.919 246.151 222.23 244.618 222.23 242.726C222.23 240.834 198.919 239.3 170.163 239.3C141.407 239.3 118.096 240.834 118.096 242.726C118.096 244.618 141.407 246.151 170.163 246.151Z" fill="#1074E7" fill-opacity="0.5"/>
<path d="M82.1287 257C95.5607 257 106.449 256.284 106.449 255.4C106.449 254.516 95.5607 253.8 82.1287 253.8C68.6967 253.8 57.8079 254.516 57.8079 255.4C57.8079 256.284 68.6967 257 82.1287 257Z" fill="#1074E7" fill-opacity="0.5"/>
<path d="M273.612 238.273C302.368 238.273 325.679 236.739 325.679 234.847C325.679 232.955 302.368 231.422 273.612 231.422C244.856 231.422 221.545 232.955 221.545 234.847C221.545 236.739 244.856 238.273 273.612 238.273Z" fill="#1074E7" fill-opacity="0.5"/>
<path d="M2.31543 229.366H350" stroke="black" stroke-width="2" stroke-miterlimit="10"/>
<path d="M312.834 60.3201H62.7749V229.195H312.834V60.3201Z" fill="#333333"/>
<path d="M62.7749 72.6719H312.834" stroke="black" stroke-width="2" stroke-miterlimit="10"/>
<path d="M70.4821 69.5688C72.1847 69.5688 73.565 68.1885 73.565 66.4859C73.565 64.7832 72.1847 63.403 70.4821 63.403C68.7794 63.403 67.3992 64.7832 67.3992 66.4859C67.3992 68.1885 68.7794 69.5688 70.4821 69.5688Z" fill="#1074E7"/>
<path d="M79.7309 69.7401C81.4335 69.7401 82.8138 68.3598 82.8138 66.6572C82.8138 64.9545 81.4335 63.5742 79.7309 63.5742C78.0282 63.5742 76.6479 64.9545 76.6479 66.6572C76.6479 68.3598 78.0282 69.7401 79.7309 69.7401Z" fill="#1074E7"/>
<path d="M88.9796 69.9113C90.6823 69.9113 92.0626 68.5311 92.0626 66.8284C92.0626 65.1258 90.6823 63.7455 88.9796 63.7455C87.277 63.7455 85.8967 65.1258 85.8967 66.8284C85.8967 68.5311 87.277 69.9113 88.9796 69.9113Z" fill="#1074E7"/>
<path opacity="0.3" d="M289.369 84.127H78.3606V125.233H289.369V84.127Z" fill="#1074E7"/>
<path opacity="0.3" d="M78.3606 125.233L289.369 84.127" stroke="#1074E7" stroke-width="2" stroke-miterlimit="10"/>
<path opacity="0.3" d="M289.369 125.233L78.3606 84.127" stroke="#1074E7" stroke-width="2" stroke-miterlimit="10"/>
<path opacity="0.15" d="M128.715 151.266H78.3606V217.377H128.715V151.266Z" fill="#1074E7"/>
<path opacity="0.15" d="M289.369 151.266H239.015V217.377H289.369V151.266Z" fill="#1074E7"/>
<path opacity="0.15" d="M209.042 151.266H158.688V217.377H209.042V151.266Z" fill="#1074E7"/>
<path opacity="0.3" d="M78.3606 151.266L128.715 217.377" stroke="#1074E7" stroke-width="2" stroke-miterlimit="10"/>
<path opacity="0.3" d="M128.715 151.266L78.3606 217.377" stroke="#1074E7" stroke-width="2" stroke-miterlimit="10"/>
<path opacity="0.3" d="M158.859 151.266L209.213 217.377" stroke="#1074E7" stroke-width="2" stroke-miterlimit="10"/>
<path opacity="0.3" d="M209.213 151.266L158.859 217.377" stroke="#1074E7" stroke-width="2" stroke-miterlimit="10"/>
<path opacity="0.3" d="M239.015 151.266L289.369 217.377" stroke="#1074E7" stroke-width="2" stroke-miterlimit="10"/>
<path opacity="0.3" d="M289.369 151.266L239.015 217.377" stroke="#1074E7" stroke-width="2" stroke-miterlimit="10"/>
<path d="M317.458 84.127H106.449V125.233H317.458V84.127Z" fill="#1074E7"/>
<path d="M298.961 167.023H248.606V233.134H298.961V167.023Z" fill="#1074E7"/>
<path d="M291.596 175.758H255.971V179.869H291.596V175.758Z" fill="#333333"/>
<path d="M291.596 184.664H255.971V188.775H291.596V184.664Z" fill="#333333"/>
<path d="M291.596 193.57H255.971V197.681H291.596V193.57Z" fill="#333333"/>
<path d="M291.596 202.477H255.971V206.587H291.596V202.477Z" fill="#333333"/>
<path d="M291.596 211.383H255.971V215.493H291.596V211.383Z" fill="#333333"/>
<path d="M291.596 220.289H255.971V224.4H291.596V220.289Z" fill="#333333"/>
<path d="M141.047 160.172H90.6924V226.284H141.047V160.172Z" fill="#1074E7"/>
<path d="M133.682 182.266H98.0571V186.377H133.682V182.266Z" fill="#333333"/>
<path d="M133.682 191.173H98.0571V195.283H133.682V191.173Z" fill="#333333"/>
<path d="M133.682 200.079H98.0571V204.189H133.682V200.079Z" fill="#333333"/>
<path d="M23.9417 121.549C23.9417 121.549 24.0626 126.503 23.5792 126.624C23.0958 126.745 30.2257 128.679 30.2257 128.679L30.9508 121.911L23.9417 121.549Z" fill="#1074E7"/>
<path d="M80.2563 163.845C80.2563 163.845 85.5736 163.845 85.6944 163.241C85.8153 162.636 86.9029 168.195 86.9029 168.195L84.7277 168.92C84.7277 168.92 80.6189 167.108 80.2563 167.108C79.8938 167.108 80.2563 163.845 80.2563 163.845Z" fill="#1074E7"/>
<path d="M86.0568 166.02C86.0568 166.02 85.0901 162.757 83.8816 162.636C83.8816 162.636 87.9904 159.978 88.1112 159.132C88.2321 158.286 89.6822 156.111 90.2865 156.836C90.8907 157.561 90.8907 169.041 89.8031 170.25C88.7155 171.458 83.8816 168.551 83.8816 168.551C83.8816 168.551 86.9028 167.229 86.0568 166.02Z" fill="black"/>
<path d="M20.4374 212.304L19.4707 217.501L23.942 218.226V212.304H20.4374Z" fill="#1074E7"/>
<path d="M20.4371 216.896C20.4371 216.896 19.7121 214.6 19.2287 214.963C18.7453 215.325 18.0202 217.621 18.1411 218.226C18.2619 218.83 19.1078 223.543 18.7453 224.389C18.3828 225.235 20.558 229.585 23.3375 229.223C26.117 228.86 25.8752 226.443 25.8752 226.443L24.9085 222.697L24.5459 216.775C24.5459 216.775 21.4039 216.292 20.4371 216.896Z" fill="black"/>
<path d="M29.5 125C33.0899 125 36 121.866 36 118C36 114.134 33.0899 111 29.5 111C25.9101 111 23 114.134 23 118C23 121.866 25.9101 125 29.5 125Z" fill="#1074E7"/>
<path d="M18.1411 155.144C18.1411 155.144 18.3828 161.186 19.3496 164.328C20.3164 167.47 23.8018 189.847 23.0767 191.539C22.3516 193.231 18.6245 211.942 19.4704 213.029C20.3163 214.117 24.3043 213.754 24.3043 213.754L29.7233 191.055C29.7233 191.055 28.6547 166.02 37.5974 165.416C46.54 164.812 61.1624 164.449 61.1624 164.449C61.1624 164.449 70.5884 167.229 74.8181 167.108C79.0477 166.987 81.4646 168.195 81.4646 168.195L82.1897 163.241L63.4585 159.132C63.4585 159.132 46.2983 153.21 36.8723 154.781C27.4463 156.352 18.1411 155.144 18.1411 155.144Z" fill="black"/>
<path d="M24.9086 125.053C24.9086 125.053 23.4585 124.207 23.0959 125.053C22.7334 125.899 20.1956 126.624 19.2288 125.899C18.2621 125.174 15.8451 126.141 15.8451 126.141L13.1865 133.996C13.1865 133.996 14.5158 140.763 15.7243 144.509C16.9328 148.256 17.4161 155.99 16.9328 156.715C16.4494 157.44 26.6005 160.34 31.5552 158.528C36.5099 156.715 37.5975 154.661 37.5975 154.661C37.5975 154.661 32.1594 146.926 33.9721 143.301C35.7848 139.676 34.3346 135.567 34.3346 135.567L35.0597 131.458L30.9509 129.162C30.9509 129.162 30.7092 126.987 29.7425 126.987C28.7757 126.987 24.9086 125.053 24.9086 125.053Z" fill="#D0CDE1"/>
<path d="M33.247 131.579H35.0597C35.5626 132.049 35.9373 132.64 36.1488 133.296C36.3602 133.951 36.4013 134.65 36.2682 135.325C35.7848 137.621 33.6048 145.233 33.6048 145.233L31.7969 140.522L33.247 131.579Z" fill="#D0CDE1"/>
<path d="M38.4523 150.986C38.4523 150.986 42.0688 154.902 39.4102 156.957C36.7516 159.011 36.0964 152.244 36.0964 152.244L38.4523 150.986Z" fill="#1074E7"/>
<path d="M33.2469 142.818L34.0929 146.201L35.543 148.86C35.543 148.86 40.4977 152.123 40.4977 153.331C40.4977 153.331 38.3225 150.552 35.543 153.331L33.0657 147.349L33.2469 142.818Z" fill="#D0CDE1"/>
<path d="M18.1411 114.781C18.1411 114.781 22.0082 112.606 23.5792 114.177C25.1502 115.748 18.8662 118.165 18.8662 118.165L18.1411 114.781Z" fill="#1074E7"/>
<path d="M16.691 126.745L15.8451 126.141C15.8451 126.141 14.8783 124.691 14.0324 125.174C13.1865 125.657 8.23178 123.361 8.23178 123.361C8.23178 123.361 10.0445 124.207 10.0445 122.757C10.0445 121.307 10.2862 121.549 11.4946 121.549C12.7031 121.549 12.7031 122.153 13.1865 121.307C13.6698 120.461 13.4282 119.978 14.2741 120.461C15.12 120.944 16.0868 120.582 16.3285 120.219C16.5702 119.857 20.9207 119.253 20.9207 119.253C20.9207 119.253 19.2288 114.298 18.8663 113.935C18.5037 113.573 9.19857 117.682 9.19857 117.682C9.19857 117.682 -2.52352 120.944 0.497637 124.691C3.5188 128.437 14.3949 134.117 14.3949 134.117L16.691 126.745Z" fill="#D0CDE1"/>
<path d="M197.91 176.614H147.555V242.726H197.91V176.614Z" fill="#1074E7"/>
<path d="M192.6 214.466H152.865V217.206H192.6V214.466Z" fill="#333333"/>
<path d="M192.6 222.002H152.865V224.742H192.6V222.002Z" fill="#333333"/>
<path d="M192.6 229.538H152.865V232.278H192.6V229.538Z" fill="#333333"/>
<path d="M89.9638 248.355C89.9638 253.35 86.9947 255.093 83.3319 255.093C83.247 255.093 83.1623 255.093 83.0777 255.091C82.908 255.087 82.7399 255.079 82.5738 255.068C79.2682 254.834 76.7 253 76.7 248.355C76.7 243.548 82.8429 237.482 83.3044 237.033L83.3052 237.032C83.323 237.015 83.3318 237.006 83.3318 237.006C83.3318 237.006 89.9638 243.36 89.9638 248.355Z" fill="#1074E7"/>
<path d="M183.439 198.488C183.439 206.184 178.864 208.871 173.219 208.871C173.089 208.871 172.958 208.87 172.828 208.867C172.566 208.862 172.307 208.849 172.051 208.832C166.958 208.471 163 205.646 163 198.488C163 191.08 172.466 181.733 173.177 181.041L173.178 181.04C173.206 181.013 173.22 181 173.22 181C173.22 181 183.439 190.791 183.439 198.488Z" fill="#333333"/>
<path d="M172.847 207.694L176.585 202.471L172.838 208.268L172.828 208.867C172.566 208.862 172.307 208.849 172.051 208.832L172.454 201.131L172.451 201.072L172.458 201.06L172.496 200.333L168.74 194.523L172.508 199.788L172.516 199.942L172.821 194.124L169.605 188.12L172.86 193.103L173.177 181.041L173.178 181V181.04L173.125 190.551L176.327 186.781L173.112 191.371L173.028 196.58L176.017 191.581L173.015 197.346L172.968 200.242L177.308 193.284L172.952 201.253L172.847 207.694Z" fill="#1074E7"/>
<path d="M83.0904 254.329L85.516 250.94L83.0844 254.702L83.0779 255.091C82.9082 255.087 82.7401 255.079 82.574 255.068L82.8354 250.071L82.8334 250.032L82.8379 250.024L82.8625 249.553L80.4248 245.782L82.8702 249.199L82.8759 249.299L83.0734 245.523L80.9865 241.627L83.0989 244.861L83.3046 237.033L83.3054 237.006V237.032L83.271 243.205L85.3487 240.758L83.2625 243.736L83.2076 247.117L85.1475 243.873L83.1995 247.614L83.1688 249.494L85.9851 244.978L83.1583 250.149L83.0904 254.329Z" fill="#333333"/>
<path d="M218.44 105.171C221.199 105.302 223.544 107.581 222.354 110.073C220.548 113.856 216.69 116.47 212.222 116.47C206.024 116.47 201 111.44 201 105.235C201 100.764 203.609 96.9028 207.386 95.0941C209.876 93.9014 212.156 96.2464 212.286 99.0047C212.516 103.88 213.573 104.94 218.44 105.171Z" fill="#333333"/>
</g>
<defs>
<clipPath id="clip0">
<rect width="350" height="257" fill="white"/>
</clipPath>
</defs>
</svg>
