<svg width="150" height="112" viewBox="0 0 150 112" fill="none" xmlns="http://www.w3.org/2000/svg">
<rect x="3.94736" y="19.7647" width="23.6842" height="92.2353" rx="11.8421" fill="url(#paint0_linear)"/>
<rect x="81.579" y="19.7647" width="23.6842" height="92.2353" rx="11.8421" fill="url(#paint1_linear)"/>
<rect width="23.6944" height="92.1958" rx="11.8472" transform="matrix(0.834127 -0.551572 0.550489 0.834842 0 28.8809)" fill="url(#paint2_linear)"/>
<rect width="23.6949" height="92.1937" rx="11.8475" transform="matrix(0.82417 0.566342 -0.565256 0.824915 90.271 15.8118)" fill="url(#paint3_linear)"/>
<rect x="122.368" y="40.847" width="23.6842" height="71.1529" rx="11.8421" fill="white"/>
<path d="M144.99 16.4462C147.751 16.492 150.076 18.7599 149.252 21.3956C147.161 28.0862 140.923 32.9412 133.553 32.9412C124.469 32.9412 117.105 25.567 117.105 16.4706C117.105 9.09204 121.95 2.8467 128.628 0.750945C131.263 -0.0759154 133.531 2.24866 133.577 5.00971C133.742 14.9957 135.023 16.2808 144.99 16.4462Z" fill="white"/>
<defs>
<linearGradient id="paint0_linear" x1="15.7895" y1="19.7647" x2="15.7895" y2="112" gradientUnits="userSpaceOnUse">
<stop stop-color="#E0E0E0"/>
<stop offset="0.291667" stop-color="#E0E0E0"/>
<stop offset="1" stop-color="#DEDEDE" stop-opacity="0"/>
</linearGradient>
<linearGradient id="paint1_linear" x1="93.4211" y1="19.7647" x2="93.4211" y2="112" gradientUnits="userSpaceOnUse">
<stop stop-color="#ECECEC"/>
<stop offset="0.822917" stop-color="white"/>
</linearGradient>
<linearGradient id="paint2_linear" x1="11.8472" y1="0" x2="11.8472" y2="92.1958" gradientUnits="userSpaceOnUse">
<stop offset="0.197917" stop-color="#E0E0E0"/>
<stop offset="0.671875" stop-color="#E7E7E7"/>
</linearGradient>
<linearGradient id="paint3_linear" x1="11.8475" y1="0" x2="11.8475" y2="92.1937" gradientUnits="userSpaceOnUse">
<stop offset="0.15625" stop-color="#ECECEC"/>
<stop offset="1" stop-color="#E7E7E7"/>
</linearGradient>
</defs>
</svg>
